# File produced by Open Asset Import Library (http://www.assimp.sf.net)
# (assimp v4.1.0)

mtllib fn91uwoutxmk.mtl

# 132 vertex positions
v  37.13833618164062 5.970177173614502 12.91162395477295
v  36.76508331298828 -0.0018157958984375 4.326884269714355
v  37.13833618164062 9.329422950744629 6.566381454467773
v  36.76508331298828 -0.0018157958984375 11.04537582397461
v  37.13833618164062 15.30141639709473 6.566381454467773
v  37.13833618164062 16.42116546630859 11.418625831604
v  37.13833618164062 15.6746654510498 19.25686645507812
v  37.13833618164062 9.702672958374023 19.6301155090332
v  37.13833618164062 15.6746654510498 25.9753589630127
v  37.13833618164062 9.329422950744629 25.22885894775391
v  37.13833618164062 17.16766357421875 32.32060241699219
v  37.13833618164062 5.223678112030029 31.20085334777832
v  37.13833618164062 15.6746654510498 34.933349609375
v  37.13833618164062 13.80841827392578 36.0531005859375
v  36.76508331298828 -0.0018157958984375 37.17284393310547
v  36.76508331298828 -0.0018157958984375 33.8135986328125
v  37.13833618164062 21.64665794372559 4.326884269714355
v  37.13833618164062 21.64665794372559 7.686130523681641
v  37.13833618164062 27.99190139770508 3.580385208129883
v  37.13833618164062 27.99190139770508 6.193132400512695
v  37.13833618164062 33.96389389038086 3.580385208129883
v  37.13833618164062 33.96389389038086 5.819882392883301
v  37.13833618164062 34.71039199829102 4.326884269714355
v  33.40583801269531 9.329422950744629 6.566381454467773
v  33.40583801269531 -0.0018157958984375 11.04537582397461
v  33.40583801269531 5.970177173614502 12.91162395477295
v  33.40583801269531 -0.0018157958984375 4.326884269714355
v  33.40583801269531 16.42116546630859 11.418625831604
v  33.40583801269531 15.30141639709473 6.566381454467773
v  33.40583801269531 9.702672958374023 19.6301155090332
v  33.40583801269531 15.6746654510498 19.25686645507812
v  33.40583801269531 9.329422950744629 25.22885894775391
v  33.40583801269531 15.6746654510498 25.9753589630127
v  33.40583801269531 5.223678112030029 31.20085334777832
v  33.40583801269531 17.16766357421875 32.32060241699219
v  33.40583801269531 13.80841827392578 36.0531005859375
v  33.40583801269531 15.6746654510498 34.933349609375
v  33.40583801269531 -0.0018157958984375 33.8135986328125
v  33.40583801269531 -0.0018157958984375 37.17284393310547
v  33.40583801269531 21.64665794372559 7.686130523681641
v  33.40583801269531 21.64665794372559 4.326884269714355
v  33.40583801269531 27.99190139770508 6.193132400512695
v  33.40583801269531 27.99190139770508 3.580385208129883
v  33.40583801269531 33.96389389038086 5.819882392883301
v  33.40583801269531 33.96389389038086 3.580385208129883
v  33.40583801269531 34.71039199829102 4.326884269714355
v  -37.51158142089844 9.329422950744629 6.566381454467773
v  -37.13832855224609 -0.0018157958984375 4.326884269714355
v  -37.51158142089844 5.970177173614502 12.91162395477295
v  -37.13832855224609 -0.0018157958984375 11.04537582397461
v  -37.51158142089844 15.30141639709473 6.566381454467773
v  -37.51158142089844 16.42116546630859 11.418625831604
v  -37.51158142089844 15.6746654510498 19.25686645507812
v  -37.51158142089844 9.702672958374023 19.6301155090332
v  -37.51158142089844 15.6746654510498 25.9753589630127
v  -37.51158142089844 9.329422950744629 25.22885894775391
v  -37.51158142089844 17.16766357421875 32.32060241699219
v  -37.51158142089844 5.223678112030029 31.20085334777832
v  -37.51158142089844 15.6746654510498 34.933349609375
v  -37.51158142089844 13.80841827392578 36.0531005859375
v  -37.13832855224609 -0.0018157958984375 37.17284393310547
v  -37.13832855224609 -0.0018157958984375 33.8135986328125
v  -37.51158142089844 21.64665794372559 4.326884269714355
v  -37.51158142089844 21.64665794372559 7.686130523681641
v  -37.51158142089844 27.99190139770508 3.580385208129883
v  -37.51158142089844 27.99190139770508 6.193132400512695
v  -37.51158142089844 33.96389389038086 3.580385208129883
v  -37.51158142089844 33.96389389038086 5.819882392883301
v  -37.51158142089844 34.71039199829102 4.326884269714355
v  -33.77908325195312 5.970177173614502 12.91162395477295
v  -33.77908325195312 -0.0018157958984375 11.04537582397461
v  -33.77908325195312 9.329422950744629 6.566381454467773
v  -33.77908325195312 -0.0018157958984375 4.326884269714355
v  -33.77908325195312 16.42116546630859 11.418625831604
v  -33.77908325195312 15.30141639709473 6.566381454467773
v  -33.77908325195312 9.702672958374023 19.6301155090332
v  -33.77908325195312 15.6746654510498 19.25686645507812
v  -33.77908325195312 9.329422950744629 25.22885894775391
v  -33.77908325195312 15.6746654510498 25.9753589630127
v  -33.77908325195312 5.223678112030029 31.20085334777832
v  -33.77908325195312 17.16766357421875 32.32060241699219
v  -33.77908325195312 13.80841827392578 36.0531005859375
v  -33.77908325195312 15.6746654510498 34.933349609375
v  -33.77908325195312 -0.0018157958984375 33.8135986328125
v  -33.77908325195312 -0.0018157958984375 37.17284393310547
v  -33.77908325195312 21.64665794372559 7.686130523681641
v  -33.77908325195312 21.64665794372559 4.326884269714355
v  -33.77908325195312 27.99190139770508 6.193132400512695
v  -33.77908325195312 27.99190139770508 3.580385208129883
v  -33.77908325195312 33.96389389038086 5.819882392883301
v  -33.77908325195312 33.96389389038086 3.580385208129883
v  -33.77908325195312 34.71039199829102 4.326884269714355
v  -47.58931732177734 19.03391265869141 31.94735145568848
v  47.21607208251953 17.16766357421875 32.32060241699219
v  47.21607208251953 19.03391265869141 31.94735145568848
v  -47.58931732177734 17.16766357421875 32.32060241699219
v  -47.58931732177734 17.54091262817383 26.34860801696777
v  -47.58931732177734 16.04791450500488 26.72185707092285
v  47.21607208251953 17.54091262817383 26.34860801696777
v  47.21607208251953 16.04791450500488 26.72185707092285
v  -47.58931732177734 17.54091262817383 24.85560989379883
v  47.21607208251953 15.6746654510498 25.22885894775391
v  47.21607208251953 17.54091262817383 24.85560989379883
v  -47.58931732177734 15.6746654510498 25.22885894775391
v  -47.58931732177734 17.54091262817383 18.88361740112305
v  -47.58931732177734 15.6746654510498 18.88361740112305
v  47.21607208251953 17.54091262817383 18.88361740112305
v  47.21607208251953 15.6746654510498 18.88361740112305
v  -47.58931732177734 17.54091262817383 17.76386833190918
v  47.21607208251953 15.6746654510498 17.76386833190918
v  47.21607208251953 17.54091262817383 17.76386833190918
v  -47.58931732177734 15.6746654510498 17.76386833190918
v  -47.58931732177734 18.28741264343262 12.16512489318848
v  -47.58931732177734 16.42116546630859 11.7918758392334
v  47.21607208251953 18.28741264343262 12.16512489318848
v  47.21607208251953 16.42116546630859 11.7918758392334
v  -47.58931732177734 22.76640701293945 9.179128646850586
v  47.21607208251953 22.39315795898438 7.312880516052246
v  47.21607208251953 22.76640701293945 9.179128646850586
v  -47.58931732177734 22.39315795898438 7.312880516052246
v  -47.58931732177734 26.87215232849121 8.432629585266113
v  -47.58931732177734 26.49890327453613 6.566381454467773
v  47.21607208251953 26.87215232849121 8.432629585266113
v  47.21607208251953 26.49890327453613 6.566381454467773
v  -47.58931732177734 29.48489952087402 8.059379577636719
v  47.21607208251953 29.11165046691895 6.193132400512695
v  47.21607208251953 29.48489952087402 8.059379577636719
v  -47.58931732177734 29.11165046691895 6.193132400512695
v  -47.58931732177734 33.59064483642578 7.686130523681641
v  -47.58931732177734 33.59064483642578 5.819882392883301
v  47.21607208251953 33.59064483642578 7.686130523681641
v  47.21607208251953 33.59064483642578 5.819882392883301

# 118 UV coordinates
vt 0.10546875 0.0703125 0
vt 0.01171875 0.0078125 0
vt 0.04296875 0.1171875 0
vt 0.08203125 0.0078125 0
vt 0.0390625 0.1796875 0
vt 0.08984375 0.1796875 0
vt 0.16796875 0.17578125 0
vt 0.171875 0.109375 0
vt 0.23828125 0.17578125 0
vt 0.23046875 0.10546875 0
vt 0.3046875 0.1875 0
vt 0.29296875 0.0625 0
vt 0.328125 0.171875 0
vt 0.33984375 0.15234375 0
vt 0.359375 0.00390625 0
vt 0.3203125 0.00390625 0
vt 0.015625 0.234375 0
vt 0.05078125 0.234375 0
vt 0.0078125 0.296875 0
vt 0.03515625 0.296875 0
vt 0.0078125 0.359375 0
vt 0.03125 0.359375 0
vt 0.015625 0.37109375 0
vt 0.66796875 0.1171875 0
vt 0.6328125 0.0078125 0
vt 0.609375 0.0703125 0
vt 0.69921875 0.0078125 0
vt 0.625 0.1796875 0
vt 0.671875 0.1796875 0
vt 0.54296875 0.10546875 0
vt 0.546875 0.17578125 0
vt 0.48828125 0.10546875 0
vt 0.48046875 0.17578125 0
vt 0.42578125 0.0625 0
vt 0.4140625 0.1875 0
vt 0.37890625 0.15234375 0
vt 0.390625 0.171875 0
vt 0.3984375 0.00390625 0
vt 0.36328125 0.00390625 0
vt 0.6640625 0.234375 0
vt 0.6953125 0.234375 0
vt 0.67578125 0.30078125 0
vt 0.703125 0.30078125 0
vt 0.6796875 0.36328125 0
vt 0.70703125 0.36328125 0
vt 0.6953125 0.37109375 0
vt 0.7578125 0.11328125 0
vt 0.71484375 0.00390625 0
vt 0.71484375 0.11328125 0
vt 0.7578125 0.00390625 0
vt 0.71484375 0.1796875 0
vt 0.76171875 0.1796875 0
vt 0.71484375 0.23046875 0
vt 0.76171875 0.23046875 0
vt 0.71484375 0.296875 0
vt 0.76171875 0.296875 0
vt 0.71484375 0.359375 0
vt 0.76171875 0.359375 0
vt 0.71484375 0.37109375 0
vt 0.76171875 0.37109375 0
vt 0.81640625 0.1015625 0
vt 0.76953125 0.078125 0
vt 0.76953125 0.1015625 0
vt 0.81640625 0.078125 0
vt 0.76953125 0.00390625 0
vt 0.81640625 0.00390625 0
vt 0.76953125 0.171875 0
vt 0.81640625 0.171875 0
vt 0.76953125 0.23828125 0
vt 0.81640625 0.23828125 0
vt 0.76953125 0.3046875 0
vt 0.81640625 0.3046875 0
vt 0.81640625 0.33203125 0
vt 0.76953125 0.33203125 0
vt 0.76953125 0.375 0
vt 0.81640625 0.375 0
vt 0.87109375 0.078125 0
vt 0.82421875 0.078125 0
vt 0.82421875 0.09375 0
vt 0.87109375 0.09375 0
vt 0.82421875 0.24609375 0
vt 0.87109375 0.24609375 0
vt 0.87109375 0.1953125 0
vt 0.82421875 0.1953125 0
vt 0.87109375 0.15234375 0
vt 0.82421875 0.15234375 0
vt 0.87109375 0.11328125 0
vt 0.82421875 0.11328125 0
vt 0.87109375 0.00390625 0
vt 0.82421875 0.00390625 0
vt 0.82421875 0.29296875 0
vt 0.87109375 0.29296875 0
vt 0.82421875 0.33203125 0
vt 0.87109375 0.33203125 0
vt 0.82421875 0.359375 0
vt 0.87109375 0.359375 0
vt 0.82421875 0.375 0
vt 0.87109375 0.375 0
vt 0.9921875 0.5078125 0
vt 0 0.3828125 0
vt 0 0.5078125 0
vt 0.9921875 0.3828125 0
vt 0.99609375 0.66796875 0
vt 0 0.53125 0
vt 0 0.66796875 0
vt 0.99609375 0.53125 0
vt 0.99609375 0.8125 0
vt 0 0.68359375 0
vt 0 0.8125 0
vt 0.99609375 0.68359375 0
vt 0.9921875 0.92578125 0
vt 0 0.86328125 0
vt 0 0.92578125 0
vt 0.9921875 0.86328125 0
vt 0.9921875 0.99609375 0
vt 0 0.93359375 0
vt 0 0.99609375 0
vt 0.9921875 0.93359375 0

# 24 vertex normals
vn 1 0 0
vn -1 0 0
vn 0 0.2952420115470886 -0.9554229974746704
vn 0 0 -1
vn 0 -0.2952420115470886 -0.9554229974746704
vn 0 0.5257310271263123 -0.8506510257720947
vn 0.1476210057735443 0.6817179918289185 -0.7165669798851013
vn 0 -0.2952420115470886 0.9554229974746704
vn 0 -1 0
vn 0 -0.8506510257720947 0.5257310271263123
vn -0.1624599993228912 -0.9510560035705566 0.2628659904003143
vn -0.1624599993228912 -0.9510560035705566 -0.2628659904003143
vn 0 -0.8506510257720947 -0.5257310271263123
vn 0 -0.5257310271263123 -0.8506510257720947
vn 0 0.5257310271263123 0.8506510257720947
vn 0 1 0
vn 0.1624599993228912 0.9510560035705566 0.2628659904003143
vn 0 0.8506510257720947 0.5257310271263123
vn 0 0 1
vn 0 0.2952420115470886 0.9554229974746704
vn 0.1624599993228912 -0.9510560035705566 -0.2628659904003143
vn -0.1624599993228912 0.9510560035705566 0.2628659904003143
vn -0.1624599993228912 0.9510560035705566 -0.2628659904003143
vn 0.1624599993228912 0.9510560035705566 -0.2628659904003143

# Mesh '' with 236 faces
usemtl DefaultMaterial
f  1/1/1 2/2/1 3/3/1
f  1/1/1 4/4/1 2/2/1
f  1/1/1 3/3/1 5/5/1
f  6/6/1 1/1/1 5/5/1
f  1/1/1 6/6/1 7/7/1
f  8/8/1 1/1/1 7/7/1
f  8/8/1 7/7/1 9/9/1
f  10/10/1 8/8/1 9/9/1
f  10/10/1 9/9/1 11/11/1
f  12/12/1 10/10/1 11/11/1
f  12/12/1 11/11/1 13/13/1
f  14/14/1 12/12/1 13/13/1
f  12/12/1 14/14/1 15/15/1
f  16/16/1 12/12/1 15/15/1
f  6/6/1 5/5/1 17/17/1
f  18/18/1 6/6/1 17/17/1
f  18/18/1 17/17/1 19/19/1
f  20/20/1 18/18/1 19/19/1
f  20/20/1 19/19/1 21/21/1
f  22/22/1 20/20/1 21/21/1
f  22/22/1 21/21/1 23/23/1
f  24/24/2 25/25/2 26/26/2
f  24/24/2 27/27/2 25/25/2
f  24/24/2 26/26/2 28/28/2
f  29/29/2 24/24/2 28/28/2
f  28/28/2 26/26/2 30/30/2
f  31/31/2 28/28/2 30/30/2
f  31/31/2 30/30/2 32/32/2
f  33/33/2 31/31/2 32/32/2
f  33/33/2 32/32/2 34/34/2
f  35/35/2 33/33/2 34/34/2
f  35/35/2 34/34/2 36/36/2
f  37/37/2 35/35/2 36/36/2
f  36/36/2 34/34/2 38/38/2
f  39/39/2 36/36/2 38/38/2
f  29/29/2 28/28/2 40/40/2
f  41/41/2 29/29/2 40/40/2
f  41/41/2 40/40/2 42/42/2
f  43/43/2 41/41/2 42/42/2
f  43/43/2 42/42/2 44/44/2
f  45/45/2 43/43/2 44/44/2
f  45/45/2 44/44/2 46/46/2
f  3/47/3 27/48/3 24/49/3
f  3/47/3 2/50/3 27/48/3
f  3/47/4 24/49/4 29/51/4
f  5/52/5 3/47/4 29/51/4
f  5/52/5 29/51/4 41/53/5
f  17/54/5 5/52/5 41/53/5
f  17/54/5 41/53/5 43/55/4
f  19/56/4 17/54/5 43/55/4
f  19/56/4 43/55/4 45/57/3
f  21/58/6 19/56/4 45/57/3
f  21/58/6 45/57/3 46/59/7
f  23/60/7 21/58/6 46/59/7
f  26/61/8 4/62/8 1/63/8
f  26/61/8 25/64/8 4/62/8
f  25/64/9 2/65/9 4/62/9
f  25/64/9 27/66/9 2/65/9
f  26/61/10 1/63/10 8/67/11
f  30/68/9 26/61/10 8/67/11
f  30/68/9 8/67/11 10/69/12
f  32/70/13 30/68/9 10/69/12
f  32/70/13 10/69/12 12/71/13
f  34/72/13 32/70/13 12/71/13
f  38/73/9 16/74/9 15/75/9
f  39/76/9 38/73/9 15/75/9
f  34/72/14 12/71/14 16/74/14
f  38/73/14 34/72/14 16/74/14
f  36/77/15 14/78/15 13/79/15
f  37/80/15 36/77/15 13/79/15
f  6/81/16 28/82/16 31/83/16
f  7/84/16 6/81/16 31/83/16
f  7/84/16 31/83/16 33/85/16
f  9/86/16 7/84/16 33/85/16
f  9/86/16 33/85/16 35/87/16
f  11/88/17 9/86/16 35/87/16
f  11/88/17 35/87/16 37/80/18
f  13/79/18 11/88/17 37/80/18
f  14/78/19 36/77/19 39/89/19
f  15/90/19 14/78/19 39/89/19
f  28/82/15 6/81/15 18/91/15
f  40/92/20 28/82/15 18/91/15
f  40/92/20 18/91/15 20/93/20
f  42/94/19 40/92/20 20/93/20
f  42/94/19 20/93/20 22/95/20
f  44/96/15 42/94/19 22/95/20
f  44/96/15 22/95/20 23/97/18
f  46/98/18 44/96/15 23/97/18
f  47/3/2 48/2/2 49/1/2
f  48/2/2 50/4/2 49/1/2
f  51/5/2 47/3/2 49/1/2
f  51/5/2 49/1/2 52/6/2
f  53/7/2 52/6/2 49/1/2
f  53/7/2 49/1/2 54/8/2
f  55/9/2 53/7/2 54/8/2
f  55/9/2 54/8/2 56/10/2
f  57/11/2 55/9/2 56/10/2
f  57/11/2 56/10/2 58/12/2
f  59/13/2 57/11/2 58/12/2
f  59/13/2 58/12/2 60/14/2
f  61/15/2 60/14/2 58/12/2
f  61/15/2 58/12/2 62/16/2
f  63/17/2 51/5/2 52/6/2
f  63/17/2 52/6/2 64/18/2
f  65/19/2 63/17/2 64/18/2
f  65/19/2 64/18/2 66/20/2
f  67/21/2 65/19/2 66/20/2
f  67/21/2 66/20/2 68/22/2
f  69/23/2 67/21/2 68/22/2
f  70/26/1 71/25/1 72/24/1
f  71/25/1 73/27/1 72/24/1
f  74/28/1 70/26/1 72/24/1
f  74/28/1 72/24/1 75/29/1
f  76/30/1 70/26/1 74/28/1
f  76/30/1 74/28/1 77/31/1
f  78/32/1 76/30/1 77/31/1
f  78/32/1 77/31/1 79/33/1
f  80/34/1 78/32/1 79/33/1
f  80/34/1 79/33/1 81/35/1
f  82/36/1 80/34/1 81/35/1
f  82/36/1 81/35/1 83/37/1
f  84/38/1 80/34/1 82/36/1
f  84/38/1 82/36/1 85/39/1
f  86/40/1 74/28/1 75/29/1
f  86/40/1 75/29/1 87/41/1
f  88/42/1 86/40/1 87/41/1
f  88/42/1 87/41/1 89/43/1
f  90/44/1 88/42/1 89/43/1
f  90/44/1 89/43/1 91/45/1
f  92/46/1 90/44/1 91/45/1
f  72/49/3 73/48/3 47/47/3
f  73/48/3 48/50/3 47/47/3
f  75/51/4 72/49/4 47/47/4
f  75/51/4 47/47/4 51/52/5
f  87/53/5 75/51/4 51/52/5
f  87/53/5 51/52/5 63/54/5
f  89/55/4 87/53/5 63/54/5
f  89/55/4 63/54/5 65/56/4
f  91/57/3 89/55/4 65/56/4
f  91/57/3 65/56/4 67/58/6
f  92/59/7 91/57/3 67/58/6
f  92/59/7 67/58/6 69/60/7
f  49/63/8 50/62/8 70/61/8
f  50/62/8 71/64/8 70/61/8
f  50/62/9 48/65/9 71/64/9
f  48/65/9 73/66/9 71/64/9
f  54/67/11 49/63/10 70/61/10
f  54/67/11 70/61/10 76/68/9
f  56/69/21 54/67/11 76/68/9
f  56/69/21 76/68/9 78/70/13
f  58/71/13 56/69/21 78/70/13
f  58/71/13 78/70/13 80/72/13
f  61/75/9 62/74/9 84/73/9
f  61/75/9 84/73/9 85/76/9
f  62/74/14 58/71/14 80/72/14
f  62/74/14 80/72/14 84/73/14
f  59/79/15 60/78/15 82/77/15
f  59/79/15 82/77/15 83/80/15
f  77/83/16 74/82/16 52/81/16
f  77/83/16 52/81/16 53/84/16
f  79/85/16 77/83/16 53/84/16
f  79/85/16 53/84/16 55/86/16
f  81/87/16 79/85/16 55/86/16
f  81/87/16 55/86/16 57/88/22
f  83/80/18 81/87/16 57/88/22
f  83/80/18 57/88/22 59/79/18
f  85/89/19 82/77/19 60/78/19
f  85/89/19 60/78/19 61/90/19
f  64/91/15 52/81/15 74/82/15
f  64/91/15 74/82/15 86/92/20
f  66/93/20 64/91/15 86/92/20
f  66/93/20 86/92/20 88/94/19
f  68/95/20 66/93/20 88/94/19
f  68/95/20 88/94/19 90/96/15
f  69/97/18 68/95/20 90/96/15
f  69/97/18 90/96/15 92/98/18
f  93/99/20 94/100/20 95/101/20
f  93/99/20 96/102/20 94/100/20
f  97/99/2 96/100/2 93/101/2
f  97/99/2 98/102/2 96/100/2
f  99/99/5 98/100/5 97/101/5
f  99/99/5 100/102/5 98/100/5
f  95/99/1 100/100/1 99/101/1
f  95/99/1 94/102/1 100/100/1
f  97/99/23 95/100/23 99/101/23
f  97/99/23 93/102/23 95/100/23
f  96/99/11 100/100/11 94/101/11
f  96/99/11 98/102/11 100/100/11
f  101/103/19 102/104/19 103/105/19
f  101/103/19 104/106/19 102/104/19
f  105/103/2 104/104/2 101/105/2
f  105/103/2 106/106/2 104/104/2
f  107/103/4 106/104/4 105/105/4
f  107/103/4 108/106/4 106/104/4
f  103/103/1 108/104/1 107/105/1
f  103/103/1 102/106/1 108/104/1
f  105/103/16 103/104/16 107/105/16
f  105/103/16 101/106/16 103/104/16
f  104/103/9 108/104/9 102/105/9
f  104/103/9 106/106/9 108/104/9
f  109/107/19 110/108/19 111/109/19
f  109/107/19 112/110/19 110/108/19
f  113/107/2 112/108/2 109/109/2
f  113/107/2 114/110/2 112/108/2
f  115/107/4 114/108/4 113/109/4
f  115/107/4 116/110/4 114/108/4
f  111/107/1 116/108/1 115/109/1
f  111/107/1 110/110/1 116/108/1
f  113/107/16 111/108/16 115/109/16
f  113/107/16 109/110/16 111/108/16
f  112/107/9 116/108/9 110/109/9
f  112/107/9 114/110/9 116/108/9
f  117/111/11 118/112/11 119/113/11
f  117/111/11 120/114/11 118/112/11
f  121/111/2 120/112/2 117/113/2
f  121/111/2 122/114/2 120/112/2
f  123/111/24 122/112/24 121/113/24
f  123/111/24 124/114/24 122/112/24
f  119/111/1 124/112/1 123/113/1
f  119/111/1 118/114/1 124/112/1
f  121/111/20 119/112/20 123/113/20
f  121/111/20 117/114/20 119/112/20
f  120/111/5 124/112/5 118/113/5
f  120/111/5 122/114/5 124/112/5
f  125/115/9 126/116/9 127/117/9
f  125/115/9 128/118/9 126/116/9
f  129/115/2 128/116/2 125/117/2
f  129/115/2 130/118/2 128/116/2
f  131/115/16 130/116/16 129/117/16
f  131/115/16 132/118/16 130/116/16
f  127/115/1 132/116/1 131/117/1
f  127/115/1 126/118/1 132/116/1
f  129/115/19 127/116/19 131/117/19
f  129/115/19 125/118/19 127/116/19
f  128/115/4 132/116/4 126/117/4
f  128/115/4 130/118/4 132/116/4

